{"title":"Hoodwinked.Too!.Hood.vs.Evil.2011.BRRip.480p..Ac3.Feel-Free","uid":6584561,"size":1139682634,"categoryP":"video","categoryS":"movies","magnet":"?xt=urn:btih:6fa796a57e3df32611dcafe109916cd06c9bd7f9&amp;dn=Hoodwinked.Too%21.Hood.vs.Evil.2011.BRRip.480p..Ac3.Feel-Free&amp;tr=udp%3A%2F%2Ftracker.openbittorrent.com%3A80&amp;tr=udp%3A%2F%2Fopen.demonii.com%3A1337&amp;tr=udp%3A%2F%2Ftracker.coppersurfer.tk%3A6969&amp;tr=udp%3A%2F%2Fexodus.desync.com%3A6969","seeders":0,"leechers":1,"uploader":"HeroMaster","files":-1,"time":1312551502,"description":"Hoodwinked.Too!.Hood.vs.Evil.2011.BRRip.480p..Ac3.Feel-Free\n\n\nGenre:Animation | Family\nLanguage:English\nIMDb:http://www.imdb.com/title/tt0844993/\nSource:BluRay.720p.x264.DTS-HDChina Thanks!\n\n\nFormat : AVI\nFormat/Info : Audio Video Interleave\nFile size : 1.06 GiB\nDuration : 1h 26mn\nOverall bit rate : 1 757 Kbps\n\n\nVideo\nID : 0\nFormat : MPEG-4 Visual\nFormat profile : Advanced Simple@L5\nFormat settings, BVOP : Yes\nFormat settings, QPel : No\nFormat settings, GMC : No warppoints\nFormat settings, Matrix : Default (H.263)\nCodec ID : XVID\nCodec ID/Hint : XviD\nDuration : 1h 26mn\nBit rate : 1 299 Kbps\nWidth : 720 pixels\nHeight : 400 pixels\nDisplay aspect ratio : 16:9\nFrame rate : 23.976 fps\nColor space : YUV\nChroma subsampling : 4:2:0\nBit depth : 8 bits\nScan type : Progressive\nBits/(Pixel*Frame) : 0.188\nStream size : 803 MiB (74%)\nWriting library : XviD 1.2.1 (UTC 2008-12-04)\n\n\nAudio\nID : 1\nFormat : AC-3\nFormat/Info : Audio Coding 3\nMode extension : CM (complete main)\nCodec ID : 2000\nDuration : 1h 26mn\nBit rate mode : Constant\nBit rate : 448 Kbps\nChannel(s) : 6 channels\nChannel positions : Front: L C R, Side: L R, LFE\nSampling rate : 48.0 KHz\nBit depth : 16 bits\nStream size : 277 MiB (26%)\nAlignment : Aligned on interleaves\nInterleave, duration : 42 ms (1.00 video frame)\nInterleave, preload duration : 512 ms\n\n\nPlot:\n\nRed Riding Hood is training in the group of Sister Hoods, when she and \nthe Wolf are called to examine the sudden mysterious disappearance of \nHansel and Gretel.\n\n\nScreens:\n\n &lt;a href=&quot;\nhttp://leetleech.org/images/34513445215774346162.png&quot; rel=&quot;nofollow&quot; target=&quot;_NEW&quot;&gt;\nhttp://leetleech.org/images/34513445215774346162.png&lt;/a&gt;\n &lt;a href=&quot;\nhttp://leetleech.org/images/24457760548362500818.png&quot; rel=&quot;nofollow&quot; target=&quot;_NEW&quot;&gt;\nhttp://leetleech.org/images/24457760548362500818.png&lt;/a&gt;\n &lt;a href=&quot;\nhttp://leetleech.org/images/39489085915768652780.png&quot; rel=&quot;nofollow&quot; target=&quot;_NEW&quot;&gt;\nhttp://leetleech.org/images/39489085915768652780.png&lt;/a&gt;\n\n\nENJOY!","torrent":{"xt":"urn:btih:6fa796a57e3df32611dcafe109916cd06c9bd7f9","amp;dn":"Hoodwinked.Too%21.Hood.vs.Evil.2011.BRRip.480p..Ac3.Feel-Free","amp;tr":["udp%3A%2F%2Ftracker.openbittorrent.com%3A80","udp%3A%2F%2Fopen.demonii.com%3A1337","udp%3A%2F%2Ftracker.coppersurfer.tk%3A6969","udp%3A%2F%2Fexodus.desync.com%3A6969"],"infoHash":"6fa796a57e3df32611dcafe109916cd06c9bd7f9","infoHashBuffer":{"type":"Buffer","data":[111,167,150,165,126,61,243,38,17,220,175,225,9,145,108,208,108,155,215,249]},"announce":[],"urlList":[]}}